<?xml version="1.0" encoding="utf-8"?>
<!-- Generator: Adobe Illustrator 21.0.2, SVG Export Plug-In . SVG Version: 6.00 Build 0)  -->
<svg version="1.1" xmlns="http://www.w3.org/2000/svg" xmlns:xlink="http://www.w3.org/1999/xlink" x="0px" y="0px"
	 viewBox="0 0 450 199" style="enable-background:new 0 0 450 199;" xml:space="preserve">
<style type="text/css">
	.st0{fill:#E9B305;stroke:#C14658;stroke-width:4;stroke-miterlimit:10;}
	.st1{fill:#E9B305;stroke:#C14658;stroke-width:2;stroke-miterlimit:10;}
	.st2{fill:#C14658;}
	.st3{fill:none;stroke:#C14658;stroke-miterlimit:10;}
</style>
<g id="Ebene_2">
	<path class="st0" d="M268,162.3c0,0-5,7-20.7,1.7c-7,2-34.7,10-35.7-10c-2,4.3-11.7,19.3-18.3,17.7c-1.3,3-11,14-27-3.7
		c-4,5.7-11.7,10.3-25.3,3c-1.3,2.7-12.3,24-32.7,2c0.7,4.7,0.7,21.3-21,11.3c-0.3,5.3-4.7,18-22,9.7c-6.3-6.3-23.7-24.3-23.7-24.3
		L16.3,99.5c0,0,2.3-2.5-13.7-13.2c-1.7-1.3,6.7-11,6.7-11s2-2.3,5.7,0c3.7,2.3,13.3,6,13.3,6L27.7,77c0,0,1-3.1,5-2.7
		s13,1.7,13,1.7l1,13.7l6.3,6l16-5L71.7,68c0,0-0.3-6.7,8-8.7C81,55.7,80,50,86,48.7c1.3-4.3,0.3-8.7,7-11c2.3-3.3,4.3-7.3,4.3-7.3
		s5.7-0.3,7.7-14c1.3-4.7,11-25,13.7-6.3c0.3,3.7-3,16.3-3,16.3s-2.3,5.3,2.7,8.7c1.7,2,1,13.3,0.3,20.3c3,3,1.3,5.7,0.3,8.7
		c3.7,3,8.3,2.3,8.3-3.7c0.3-1.7,1-4,6.3-3.7C139,57,149.3,57,149.3,57s7.7-2,5.7,10.7c2.7,0.3,5,0.3,5,0.3s0.7-4,4.7-5.7
		c0.3-1.7-0.7-13.3,3.3-13c4.7-1.7,9.3,0.7,12.3-13.3c0.3-3,9.7-1,9.7-1s6-0.7,3.7,9c2.7,3.3,13.3,9,9,17.7c3,2.7,7.7,6.7,5.3,12.7
		c7.3,1.7,18,2,18,2v-4.7l9.7-0.3l-1-11l-2.7-0.7v-6l4-1v-8.3l6-2L253,26c0,0,2.7-6.3,9.3-1c6.7,5.3,13,11.7,13,11.7h7l3.3,8.7
		l6,2.3v7l1.7,0.7v10.3h4.7v-7.3h18.3V66l4.3,1.7v6L329,74v-9l15.7-1.7c0,0,2-7,3.7-8.3c1.3-4.3-0.3-10,3.7-11c0-1.3-3-8,0-13
		c-2-4.7-3.7-8,0-10c0-1.7-2.3-14.7,9.7-12.7c2.7,0,10.3-2,9.7,10c3,2.7,8.4,6.3,0,12c2.6,2.3,8.3,9.7,2,11.7c4,1,5,5.7,5.3,11
		c2.3,4.3,6.3,15,11,19.7c-2.3,5-4.7,7.7-4.7,7.7l0.7,12l9.3-1.7v-15l24.3-23.3l18.3,24v20L443,98v14.3c0,0-3,4.7,3.7,11.3
		c2.3,3.7,0.7,62-58,62c-2,2-6.3,15-21.3-11.7c-2.7,2-3,4.7-15,1.7c-3.3-1.3-18.3,4-23.3-7.7c-2.3,2-13,4-20.7,3.7
		c3,3.3,12.7,17-9.7,20.7C290.7,194,282,196.7,268,162.3z"/>
</g>
<g id="Ebene_4">
	<path class="st1" d="M111.3,121.7V105h-4.7l8.5-32l-2.1-3l2.1-9.7l-2.5-2.7c0,0,2.3-9.3,0.7-9.7c0.7-1,1.5-11.3-2.4-14.3
		c0.8-7.7,5.1-22.3,2.1-25.3c-2.7,3.7-7.3,14.3-8.7,22.3c-3.7,3.7-7.7,7-7.7,10.7C95.7,43,92,45,92,45v7l-6.7,3.3v7.3
		c0,0-5.7-2.7-8.3,9.7C76.3,81.7,74.7,98,74.7,98l-10.3,10l11.3,46l16.3,4.3L111.3,121.7z"/>
	<polygon class="st1" points="83.7,150.3 61.3,170.7 40.3,121.3 33.3,107 74.7,98 75.3,104.7 71,106.7 	"/>
	<path class="st1" d="M53.3,151l-9.7,7.3c-3.4-9.4-6.8-18.9-10.3-28.3c-2.5-6.9-5-13.8-7.5-20.7c-1.9-5.3-3.3-11.9-6-16.7
		C19,91,10.4,83,8.7,85.3c2-2.7,4.3-5.7,4.3-5.7L33.3,90l0.7-9l6.7,0.3L41,93l12.3,9L38,107.3l1.7,6l4,1.3L53.3,151z"/>
	<polygon class="st1" points="242,102.2 243.5,79.6 230.4,77 228.7,101.5 	"/>
	<polygon class="st1" points="213.2,103.9 211.2,82.7 230.2,79.7 228.7,103.9 	"/>
	<polyline class="st1" points="315.7,111.8 317,81.2 330.2,81.2 330.2,108.3 	"/>
	<polygon class="st1" points="330.2,83.3 332.3,70.7 347,70.7 338.6,101.2 335.7,107.3 328.1,107.3 	"/>
	<polygon class="st1" points="291.3,91.8 291.3,71.3 301,71.3 303,68.7 303,62 311,62 311,69 315.7,71 315.7,100.5 306.3,100.5 
		288.4,99.4 	"/>
	<polygon class="st1" points="158.7,108 160.7,92.5 165,86.3 165,68 171.3,63.3 171.3,54.3 182.7,46.3 182.7,40.7 187.1,40.7 
		187.1,47 198,55.7 198,63.3 202.3,68.7 202.3,86.3 205.7,90 205.7,103.9 205.7,111.8 182.2,124.7 166,119 	"/>
	<polygon class="st1" points="108.3,122.3 108.3,105 116.7,105 118.3,97.5 123.3,97.5 125.7,72.7 132.7,71 132.7,63.3 150.3,63.3 
		150.3,72.7 156.4,73.7 156.4,98 161,99.4 162.7,109.7 168,141.1 150.3,135.3 129.3,130.3 	"/>
	<polygon class="st1" points="249.6,101.2 238,60 243.8,55.7 241.7,49.7 258.3,28.7 278.3,42.7 281,51.7 286.3,51.3 286.3,58.3 
		288,59.3 288,69 289.9,71 294.3,96 284.7,101.5 	"/>
	<path class="st1" d="M341.7,103.9h6.7V81.2l-6.7-5.9l8-10.3c0,0,1.3-8.1,3.7-8.4c2.3-0.3,0-7,0-7l4.7-4.3l-1.7-4.7
		c0,0-1.3-3,1.7-6.3c2.3-3,1.3-4.7,0-5.7s-4.3-4-0.7-7.3c1.3-2.3-1.3-8,4.7-8.3s3,4.7,3,6s7,5,2.3,9.7c-4.7,4.7-0.3,5-0.7,6
		c-0.3,1,7.2,2.7,2.3,7.7c0.1,4.3,3.1,3,3.1,5.3c0,2.3,0,5.3,0,5.3s4,4.3,3.5,10.3c2.8,3,8.8,7.3,8.8,7.3l-5.7,9v20.8l3.9-1v8.8
		h11.1V97.5l7.3-0.9l1.7-19.5l15.7-18.3l14,21v20.8l6.3,1c0,0-4.7,11.9,0,21.2c2.7,4.3,5.7,10,0,16.3c-5.7,6.3-30.3,26.5-30.3,26.5
		l-31-4.1l-12-10.4l-13,10.7l-10.7,2.3l-2-39.3L341.7,103.9z"/>
</g>
<g id="Ebene_3">
	<path class="st1" d="M192.9,167c-0.6,0.2-1.2,0.4-1.8,0.4c-2.2,0.3-4.3-0.3-6.4-0.1c-2.2-6.1-4.5-12.1-6.8-18.2c-1.5-4-3-8-4.5-12
		c-0.5-1.2-2.2-4.1-2-5.4c0,0,2.3-17.8,2.3-17.9c0.5-3.6,7-7.4,9.8-8.5c6-2.4,14.6-1.6,20.5,1c6.2,2.7,7.6,8.1,8.7,14.3
		c1.6,9.1,0.1,18.4-3.8,26.7C206.1,153,199.8,164.5,192.9,167z"/>
	<path class="st1" d="M190.7,119c0,0,19.3-3.7,2.3,26.5C191,144.3,187,128,190.7,119z"/>
	<path class="st1" d="M78.7,164.3c0.5,3,1,6,1.5,9c0.6,3.3,3.8,10.3,1.9,13.1c-2.5,3.8-8.7,9.1-13.1,5.6c-5-4-23.5-27.5-23.7-27.7
		c-4.8-6.1,7.3-14.5,9.3-11.3c1.7,2.7,5.2,10.7,10.1,14.3c-1.4-4-5.2-30.3-1.3-44c2.2,1,12.1,13,19.5,23.7c0.7-8-5.3-52.3,3.7-67.3
		c4-0.3,14,1,15.7,5c-0.7,12.1-3.1,24-3.8,36.2c-0.5,8.9-0.4,18.4,0.1,27.5c0.5,9.2,3.6,18.1,3.8,27.4c0.1,5.9-4.1,8.5-9.8,4.7
		C88.7,177.7,78.7,164.3,78.7,164.3z"/>
	<path class="st1" d="M401,121c0,0,6-11.7,14-8.7c13.2,4.9,33.4,16.6,23.7,32.9c-6.9,11.6-15.1,24-26.6,31.6
		c-10.4,6.9-21.4,5.6-29.4-4.2C381.3,163.3,401,121,401,121z"/>
	<path class="st1" d="M402.7,161.7c0,0,10.3-25.9,10.3-26c0.6-1.6,4.8-3.9,6.4-3.2c5.7,2.4,0,13.2-2.2,16.3
		c-2.2,3.1-5.3,5.7-8.2,8.1C407.7,158,403.3,160.2,402.7,161.7z"/>
	<path class="st1" d="M367.3,156c0,0,0,0.9-0.1,2.3c-0.2,3.9-1.1,11.4-5.3,14.2c-3-0.2-11,0.7-15-7.1c2-4.1,15-23,8-61.6
		c-1.7-9.3,19.6-7.8,20,0c0.3,6.1,0.3,33.1,5.3,36.4c1.7-7.3,5-21.3,5-21.5c1.3-5.7,13.8-3.1,17.1-0.7c4.2,3.1-1.2,9-2.7,12.6
		c-1.8,4.4-3.4,8.9-5.1,13.3c-1.9,5.3-4.1,10.5-5.6,15.9c-2.3,8.1-1.7,17.6-7.1,24.6c0,0-15.3-16.2-14.6-27.7"/>
	<path class="st1" d="M345.3,134.3c0,0,2,25.1,3.7,27c0.7,2,4,11.6-14.3,6.1c-1.3-3.2-3-16.8-2.3-22c-3-1.2-6,3.1-7,4.5
		s-8,11.8-8,11.8l-12.7-3.4c6.7-13.6,14.2-26.9,18.9-41.3c1.8-5.7,1.7-11.9,7.9-14.5c3.9-1.6,9.8-1.8,12.7,1.8
		c1.7,2.1,1.6,6.2,1.8,8.7C346.3,120.1,344.8,127.4,345.3,134.3z"/>
	<polygon class="st1" points="332.3,132.2 328.1,134.3 332.3,124.7 	"/>
	<path class="st1" d="M315.7,165.3c0,0-19.7-3.3-25.7-1.7c0.3-2.3,0-49.1,0-59.8c-0.3-4.9-0.7-12.6,12.8-11.2c6.2,1,13.2-2.7,7.5,17
		c-5.7,19.7-4.1,40-4.1,40L328,150C328,150,330.2,167.2,315.7,165.3z"/>
	<path class="st1" d="M266.3,134.3c0,0-2.7,5-1.7,17c0.3,3.7-2.7,12.7-12,7c-4.7-2.9-1-6.3,0-16.3c0-7.3-0.7-34.6-5.9-40.8
		c2.5-2.9,26.5-24.2,41.9-10.2c3.7,5.3,9.3,16.3-11.7,33.7c0,3.7,8.7,30.6,27,52.4c3,4.2,4.3,6.9-4.3,9.2c-5,0.7-9.7,2-14-4.7
		C281.3,175,265.3,141.7,266.3,134.3z"/>
	<path class="st1" d="M265,118.9v-17.7C265,101.2,282.1,94.9,265,118.9z"/>
	<path class="st1" d="M231.3,147.7c1.8-0.9,3.5-1.9,5.3-2.7c2.2-1.1,4.9-3.6,7.2-4.1c5.1-1.2,6.3,8.1,5.5,11.4
		c-1.5,6.6-8.3,8.9-14.4,9.2c-3.8,0.2-7.9,1-11.5-0.8c-5.4-2.7-5.2-9.2-6.1-14.3c-1-5.2-2.4-10.4-3.5-15.6
		c-1.8-8.6-3.4-16.8-2.2-25.4c0.9-6.6,9.8-5.8,14.6-5.5c2.9,0.2,5.8,0.7,8.8,0.5c3.2-0.1,7.9-1.9,10.9-0.3c1.7,0.9,0.7,6.9,0.2,8.6
		c-1.1,3.6-3.6,4.5-7.1,5.2c-6,1.1-11.7,0-11.7,0L226,120c4.6-0.7,12.4-2.6,16.1,1.4c5.3,5.6-11.3,8.9-13.8,10.8
		C228.7,133.8,232,147.3,231.3,147.7z"/>
	<path class="st1" d="M136.5,165.9c-2.9,8.1-8,14-18.8,9.7c-5.9-2.3-11-10.6-13.2-16.1c-2.3-6.1-2.8-12.7-2.2-19.1
		c0.7-7.2,1.2-16.9,6.3-22.5c5.9-6.4,16-4.6,21.7,1.1c10,10,11.2,24,8.7,37.2C138.4,159.5,137.6,162.9,136.5,165.9z"/>
	<path class="st1" d="M124.6,136.5c-0.1-0.3-0.2-0.6-0.4-0.8c-2-4.5-6.6-8.8-8.6-1.4c-2,7.7,2,19.3,4.5,24c1.8,3.7,5.2,5,6.8-1.7
		C127.7,150.1,127.1,142.7,124.6,136.5z"/>
	<path class="st1" d="M157.3,151.3c1.9,2,3.4,6,4,8.6c2.1,9.9-17,13.2-17,3.1c0-8.3-1.1-34.9-17.2-54.7c-4.2-5.1,1.6-6.4,5.8-7
		c6.2-0.9,9.3,1.4,12.8,6.6c6.3,9.7,18,26.3,18,26.3s-10-32.7,2-30.3c3,0,10,0.7,10.7,7.3c-0.7,5.7-0.7,29,5.7,42.7
		c3,9,11.8,23.8-4.3,16.7C173,167.3,157.4,151.4,157.3,151.3z"/>
</g>
<g id="Ebene_5">
	<g>
		<path class="st2" d="M110.5,72.5c-1.3,0.1-2.7,0.1-4,0.2l-0.1,0l-0.1-0.1c-0.8-1.7-1.6-3.5-2.4-5.2c-0.8-1.7-1.6-3.5-2.3-5.2
			l0.6,0.2c-3.2,1.3-6.3,2.5-9.5,3.8c-3.2,1.2-6.4,2.4-9.6,3.6l-0.4,0.2l0-0.4c0-1.2,0.1-2.5,0.1-3.7c0.1-1.2,0.1-2.5,0.2-3.7
			c0.1,1.2,0.1,2.5,0.2,3.7c0.1,1.2,0.1,2.5,0.1,3.7l-0.4-0.3c3.1-1.3,6.3-2.7,9.5-3.9c3.2-1.3,6.3-2.5,9.5-3.7l0.4-0.2l0.2,0.4
			c0.7,1.8,1.4,3.5,2.1,5.3c0.7,1.8,1.4,3.5,2.1,5.3l-0.2-0.1C107.8,72.4,109.2,72.4,110.5,72.5z"/>
	</g>
	<g>
		<path class="st2" d="M110.5,62c-1.4-1.2-2.9-2.5-4.2-3.8c-1.4-1.3-2.8-2.6-4.1-3.9l0.5,0.1c-4,1.4-8,2.7-12.1,3.8l-0.4,0.1l0-0.4
			c0-0.9,0.1-1.8,0.1-2.7c0.1-0.9,0.1-1.8,0.2-2.7c0.1,0.9,0.1,1.8,0.2,2.7c0.1,0.9,0.1,1.8,0.1,2.7l-0.4-0.3
			c3.9-1.5,7.9-2.9,11.9-4.2l0.3-0.1l0.2,0.2c1.3,1.4,2.6,2.7,3.9,4.1C108,59.1,109.3,60.6,110.5,62z"/>
	</g>
	<g>
		<path class="st2" d="M110.5,45.5c0.4,0.6,0.2,1.3,0,1.9c-0.2,0.6-0.4,1.3-0.7,1.9c-0.6,1.2-1.3,2.3-2,3.4l-0.3,0.4l-0.3-0.5
			c-1.7-2.3-3.4-4.6-5.1-6.9l0.7,0.1c-1.9,1.2-3.9,2.3-5.8,3.4l-0.6,0.3l0-0.6c0-1.2,0.1-2.3,0.1-3.5c0.1-1.2,0.1-2.3,0.2-3.5
			c0.1,1.2,0.2,2.3,0.2,3.5c0.1,1.2,0.1,2.3,0.1,3.5l-0.6-0.3c1.9-1.2,3.8-2.4,5.7-3.6l0.4-0.2l0.3,0.4c1.7,2.3,3.3,4.7,4.9,7.1
			l-0.6,0c0.8-1,1.5-2.1,2.2-3.2c0.3-0.6,0.7-1.1,0.9-1.7C110.5,46.8,110.7,46.1,110.5,45.5z"/>
	</g>
	<g>
		<path class="st2" d="M192.2,92.5c-2.8,0.4-5.6,0.5-8.4,0.5c-2.8,0-5.6-0.1-8.4-0.5c2.8-0.4,5.6-0.5,8.4-0.5
			C186.7,92,189.5,92.1,192.2,92.5z"/>
	</g>
	<g>
		<path class="st2" d="M189.2,77.5c-2.1-2.5-3.9-5.1-5.7-7.7l0.7,0.1c-2.8,2.7-5.6,5.3-8.7,7.6c2.5-3,5.2-5.7,8-8.4l0.4-0.4l0.3,0.5
			C186,71.9,187.7,74.6,189.2,77.5z"/>
	</g>
	<g>
		<path class="st2" d="M200,77.5c-0.9-1.3-1.8-2.6-2.6-3.9l0,0l0-0.1c-0.1-2.1-0.1-4.2-0.1-6.2l0.1,0.2c-2-1.6-4.1-3.2-6.1-4.9l-6-5
			l0.5,0.1c-4.7,1.6-9.5,3.1-14.2,4.7l0.3-0.4c0,1.9-0.1,3.8-0.1,5.7l-0.1,5.7l0,0.1l-0.1,0.1c-1.8,1.3-3.6,2.6-5.5,3.8
			c1.7-1.4,3.5-2.8,5.2-4.2l-0.1,0.2l-0.1-5.7c0-1.9-0.1-3.8-0.1-5.7l0-0.3l0.3-0.1c4.7-1.6,9.4-3.3,14.2-4.8l0.3-0.1l0.2,0.2l6,5
			c2,1.7,3.9,3.4,5.9,5.1l0.1,0.1l0,0.1c0,2.1-0.1,4.2-0.1,6.2l0-0.1C198.4,74.8,199.2,76.1,200,77.5z"/>
	</g>
	<polygon class="st2" points="268.8,42 252,42 260.4,35.5 	"/>
	<g>
		<path class="st2" d="M365.5,52.5c1,2.4,1.6,4.8,2.2,7.3c0.6,2.5,1.1,4.9,1.3,7.5c-1-2.4-1.6-4.8-2.2-7.3
			C366.2,57.5,365.7,55,365.5,52.5z"/>
	</g>
	<g>
		<path class="st2" d="M360.5,57.3c-0.2,1.8-0.7,3.5-1.3,5.2c-0.6,1.7-1.3,3.3-2.2,4.8c0.2-1.8,0.7-3.5,1.3-5.2
			C358.9,60.4,359.5,58.8,360.5,57.3z"/>
	</g>
	<g>
		<path class="st2" d="M282,52.5c0.7,0.6,1.1,1.4,1.5,2.2c0.3,0.8,0.6,1.6,0.5,2.6c-0.7-0.6-1.1-1.4-1.5-2.2
			C282.2,54.3,282,53.4,282,52.5z"/>
	</g>
	<g>
		<path class="st2" d="M278.5,59.9c-0.4-0.8-0.5-1.7-0.5-2.5c0-0.8,0.1-1.7,0.5-2.5c0.4,0.8,0.5,1.7,0.5,2.5
			C279,58.2,278.9,59,278.5,59.9z"/>
	</g>
	<line class="st3" x1="272.6" y1="57.3" x2="272.6" y2="62"/>
	<line class="st3" x1="268.8" y1="57.4" x2="268.8" y2="62"/>
	<g>
		<path class="st2" d="M265,57.3c0.4,0.8,0.5,1.6,0.5,2.4c0,0.8-0.1,1.6-0.5,2.4c-0.4-0.8-0.5-1.6-0.5-2.4
			C264.5,58.8,264.6,58,265,57.3z"/>
	</g>
	<line class="st3" x1="260.4" y1="57.4" x2="260.4" y2="62"/>
	<line class="st3" x1="256.5" y1="57.4" x2="256.5" y2="62"/>
	<g>
		<path class="st2" d="M252,57.3c0.4,0.8,0.5,1.7,0.5,2.5c0,0.8-0.1,1.7-0.5,2.5c-0.4-0.8-0.5-1.7-0.5-2.5
			C251.5,58.9,251.6,58.1,252,57.3z"/>
	</g>
	<line class="st3" x1="246.8" y1="59.6" x2="246.8" y2="62.3"/>
	<g>
		<path class="st2" d="M243.6,59.6c0.3,0.2,0.4,0.4,0.4,0.7c-0.1,0.1-0.2,0.2-0.3,0.3c0,0.1,0,0.2,0.1,0.3c0.2,0.2,0.3,0.4,0.3,0.7
			c0,0.2-0.2,0.4-0.5,0.7h-0.1c-0.3-0.2-0.4-0.4-0.5-0.7c0-0.2,0.1-0.4,0.3-0.7c0.1-0.1,0.1-0.2,0.1-0.3c0-0.1-0.2-0.2-0.3-0.3
			c-0.1-0.2,0-0.4,0.4-0.7H243.6z"/>
	</g>
	<circle class="st2" cx="364.8" cy="81.8" r="4.3"/>
</g>
</svg>
